<svg width="1286" height="202" viewBox="0 0 1286 202" fill="none" xmlns="http://www.w3.org/2000/svg">
<path d="M1387 188V0L1274.5 98L1171.5 0L1054.5 68.5L932 139L813 57L738 98L657 49L466.911 188H438.956L324 68.5L211 157C167.766 128.718 145.5 96.5 104.5 57C91 60 47 68.5 47 68.5C15.3463 47.7932 6 30.5 -29 0L-37 188H438.956L450.5 200L466.911 188H665.5H1387Z" fill="#737DA2"/>
<path d="M-117 202V26L-4.5 91.8321L98.5 26L224 91.8321L337.5 39.4351L448 83.4351L536.5 72.0153L613 58.916L803.5 121.725L912 91.8321L1059 131.466L1299 26V202H-117Z" fill="#384E74"/>
</svg>
